<?xml version="1.0" encoding="utf-8"?>
<!-- Generator: Adobe Illustrator 21.0.0, SVG Export Plug-In . SVG Version: 6.00 Build 0)  -->
<svg version="1.1" xmlns="http://www.w3.org/2000/svg" xmlns:xlink="http://www.w3.org/1999/xlink" x="0px" y="0px"
	 viewBox="0 0 1037.3 1037.3" style="enable-background:new 0 0 1037.3 1037.3;" xml:space="preserve">
<style type="text/css">
	.st0{fill:#6ABD45;}
	.st1{opacity:0.64;enable-background:new    ;}
	.st2{font-family:'ArialMT';}
	.st3{font-size:15.4782px;}
	.st4{fill:#FFFFFF;}
	.st5{fill:url(#SVGID_1_);}
</style>
<g id="background">
	<path class="st0" d="M575.8,852.9C-101.9,793.2,38.8,699.4,38.8,699.4s0,0,4.3-4.3c17.1-17.1,98-132.1,93.8-255.8
		C128.3,303,251.9,72.8,716.5,166.6c119.4,25.6,127.9,34.1,183.3,68.2c162,98,85.3,272.8,85.3,272.8
		C959.5,550.2,1198.2,908.3,575.8,852.9z"/>
</g>
<g id="keyboard">
	<path d="M933.9,767.6H136.8c-12.8,0-21.3-4.3-21.3-12.8v-17.1c0-8.5,8.5-12.8,21.3-12.8h797.1c12.8,0,21.3,4.3,21.3,12.8v17.1
		C955.2,763.3,946.7,767.6,933.9,767.6z"/>
	<polygon points="128.3,725 192.2,707.9 865.7,707.9 942.4,725 	"/>
</g>
<g id="laptop_x5F_screen">
	<rect x="192.2" y="298.7" class="st1" width="673.5" height="409.2"/>
	<rect x="222" y="328.5" width="613.8" height="341"/>
	<g>
		<text transform="matrix(1.1971 0 0 1 234.5599 362.2826)" class="st0 st2 st3">101010101010101010101010101010100010110101010101010101010</text>
		<text transform="matrix(1.1971 0 0 1 234.5599 381.6488)" class="st0 st2 st3">101010101010101010101010101010101010110101010101010101010</text>
		<text transform="matrix(1.1971 0 0 1 234.5599 401.0062)" class="st0 st2 st3">100101011010100101010101010101010100110101010101010101010</text>
		<text transform="matrix(1.1971 0 0 1 234.5599 416.4525)" class="st0 st2 st3">101010101010101010101010101010101011010101001101001010101</text>
		<text transform="matrix(1.1971 0 0 1 234.5599 435.8187)" class="st0 st2 st3">101101010101010101101010010101010101010101010110101001010</text>
		<text transform="matrix(1.1971 0 0 1 234.5599 455.1771)" class="st0 st2 st3">111011010100101010101010101010101010110101010101010101010</text>
		<text transform="matrix(1.1971 0 0 1 234.5599 474.5033)" class="st0 st2 st3">101010101010101010101010101010100010110101010101010101010</text>
		<text transform="matrix(1.1971 0 0 1 234.5599 493.8656)" class="st0 st2 st3">101010101010101010101010101010101010110101010101010101010</text>
		<text transform="matrix(1.1971 0 0 1 234.5599 509.3197)" class="st0 st2 st3">100101011010100101010101010101010100110101010101010101010</text>
		<text transform="matrix(1.1971 0 0 1 234.5599 528.6732)" class="st0 st2 st3">101010101010101010101010101010101011010101001101001010101</text>
		<text transform="matrix(1.1971 0 0 1 234.5599 548.0306)" class="st0 st2 st3">101101010101010101101010010101010101010101010110101001010</text>
		<text transform="matrix(1.1971 0 0 1 234.5599 567.3616)" class="st0 st2 st3">111011010100101010101010101010101010110101010101010101010</text>
		<text transform="matrix(1.1971 0 0 1 234.5599 586.7239)" class="st0 st2 st3">101010101010101010101010101010100010110101010101010101010</text>
		<text transform="matrix(1.1971 0 0 1 234.5599 602.2005)" class="st0 st2 st3">101010101010101010101010101010101010110101010101010101010</text>
		<text transform="matrix(1.1971 0 0 1 234.5599 621.5628)" class="st0 st2 st3">100101011010100101010101010101010100110101010101010101010</text>
		<text transform="matrix(1.1971 0 0 1 234.5599 640.8939)" class="st0 st2 st3">101010101010101010101010101010101011010101001101001010101</text>
	</g>
	<polygon class="st4" points="388.6,631.5 255.4,507.6 384.3,387.9 400.8,405.6 291,507.6 405.1,613.8 	"/>
	<polygon class="st4" points="665.1,631.5 648.6,613.8 762.7,507.6 652.9,405.6 669.3,387.9 798.2,507.6 	"/>
	<path class="st4" d="M585.5,437.1l-0.2,0.2c0.1,0,0.1,0,0.2,0C585.5,437.3,585.6,437.2,585.5,437.1z"/>
	<path class="st4" d="M585.5,437.4c-0.1,0-0.1,0-0.2,0l0,0l0,0c0,0,0,0,0,0l0.2-0.2C585.6,437.2,585.5,437.3,585.5,437.4
		c0.7,0,1.4-0.1,2.1-0.2c-1.3-0.5-2.3-0.7-3.7-1.4l-0.2,0.2c-0.3,0.1-0.6,0.2-0.8,0.4c0.8,0.6,1.7,1.1,2.6,1.5
		C585.5,437.7,585.6,437.5,585.5,437.4z"/>
	<path class="st4" d="M575.6,437c-2.6,1.1-4.9,2.4-6.9,3.9c-2.3,1.6-4.4,3.3-6.3,5.2c-1,0.9-1.9,1.9-2.8,2.8c-0.8,1-1.3,2.2-1.6,3.7
		c-0.3,1.4-0.4,2.9-0.8,4.2c-0.4,1.3-1.2,2.3-2,3.4c-5.9,8.6-12,17-18.2,25.4c-3.1,4.2-6.2,8.4-9.4,12.5l-9.4,12.5
		c-6.3,8.3-12.6,16.6-18.8,25c-12.3,16.8-23.9,34.1-34.6,52c-5.3,9-10.1,18.3-14.4,27.9c-2.1,4.8-4.1,9.8-5.9,14.8
		c-0.8,2.3-1.6,4.7-2.4,7.1c-0.9,2.8,2.5,5,4.7,3.1c1.9-1.6,3.8-3.3,5.6-5c3.9-3.6,7.7-7.4,11.3-11.3c7.2-7.7,13.8-15.9,19.9-24.3
		c12.2-16.9,23.5-34.4,34.1-52.4c5.3-9,10.4-18.1,15.6-27.1l7.7-13.6c2.6-4.5,5.2-9.1,7.8-13.6c5.3-9,10.6-17.9,16.2-26.7
		c0.7-1.1,1.3-2.3,2.3-3.1c1-0.9,2.3-1.6,3.5-2.4c1.2-0.8,2.2-1.7,2.7-2.9c0.6-1.2,1.1-2.4,1.5-3.7c0.9-2.5,1.7-5.1,2.3-7.9
		c0.5-2.5,0.8-5.2,0.8-8.1C577.3,438.1,576.4,437.6,575.6,437z"/>
	<linearGradient id="SVGID_1_" gradientUnits="userSpaceOnUse" x1="570.5018" y1="411.484" x2="616.5881" y2="411.484">
		<stop  offset="1.897669e-02" style="stop-color:#F6F6F6"/>
		<stop  offset="2.841662e-02" style="stop-color:#F3F4F1"/>
		<stop  offset="0.1405" style="stop-color:#D4E3B9"/>
		<stop  offset="0.256" style="stop-color:#B8D488"/>
		<stop  offset="0.3727" style="stop-color:#A0C75E"/>
		<stop  offset="0.4907" style="stop-color:#8DBD3C"/>
		<stop  offset="0.6105" style="stop-color:#7EB422"/>
		<stop  offset="0.7328" style="stop-color:#73AF0F"/>
		<stop  offset="0.8591" style="stop-color:#6DAB04"/>
		<stop  offset="0.9959" style="stop-color:#6BAA00"/>
	</linearGradient>
	<path class="st5" d="M617.6,382.3c-1.1,0.2-2.2,0.4-3.3,0.7c-3.6,1-7.3,2.4-10.8,4.6c-3.5,2.2-6.9,5.3-9.8,9.7l-1.1,1.7
		c-0.3,0.6-0.6,1.2-1,1.8c-0.3,0.6-0.6,1.2-0.9,1.9l-0.2,0.5l-0.1,0.2c0,0-0.1,0-0.1,0.1l-0.3,0.1c-0.7,0.3-1.4,0.8-2.1,1.5
		c-0.7,0.7-1.2,1.5-1.6,2.6c-0.2,0.5-0.5,1.1-0.7,1.7c-0.3,0.6-0.5,1.2-0.7,1.8c-1,2.5-2.2,5.3-3.4,8.2c-1.2,2.9-2.5,6-3.7,9.3
		c-1,2.6-1.9,5.3-2.7,8.3c1.7,0.8,3.2,2.1,4.4,3.7c2.7-0.4,5.3-1.1,7.8-1.9c3.6-1.2,7-2.8,10.3-4.8c3.2-2,6.3-4.3,9.2-7.1
		c1.4-1.4,2.9-3,4.1-4.8c1.2-1.8,2.2-3.9,2.9-6.3c0.6-2.4,0.9-5.1,0.8-8l-0.1-1.1c0-0.1,0-0.2,0-0.3l0-0.1l-0.1-0.1
		c-0.1-0.2-0.3-0.4-0.4-0.5c-0.1-0.2-0.2-0.4-0.3-0.6l-0.3-0.7c-0.5-1.9-0.1-4.3,0.8-6.9c1-2.6,2.5-5.4,4.4-8
		c0.6-0.8,1.2-1.7,1.9-2.5C622.1,385,620.3,381.9,617.6,382.3z"/>
</g>
</svg>
