<?xml version="1.0" encoding="utf-8"?>
<!-- Generator: Adobe Illustrator 21.0.0, SVG Export Plug-In . SVG Version: 6.00 Build 0)  -->
<svg version="1.1" id="Layer_1" xmlns="http://www.w3.org/2000/svg" xmlns:xlink="http://www.w3.org/1999/xlink" x="0px" y="0px"
	 viewBox="0 0 24 24" style="enable-background:new 0 0 24 24;" xml:space="preserve">
<style type="text/css">
	.st0{fill:#6ABD45;}
	.st1{opacity:0.64;}
	.st2{font-family:'MyriadPro-Regular';}
	.st3{font-size:0.4px;}
	.st4{fill:none;stroke:#FFFFFF;stroke-miterlimit:10;}
	.st5{fill:none;stroke:#FFFFFF;stroke-width:0.5;stroke-miterlimit:10;}
</style>
<path class="st0" d="M13.2,20c-15.9-1.4-12.6-3.6-12.6-3.6s0,0,0.1-0.1c0.4-0.4,2.3-3.1,2.2-6C2.7,7.1,5.6,1.7,16.5,3.9
	c2.8,0.6,3,0.8,4.3,1.6c3.8,2.3,2,6.4,2,6.4C22.2,12.9,27.8,21.3,13.2,20z"/>
<path d="M21.6,18H2.9c-0.3,0-0.5-0.1-0.5-0.3v-0.4c0-0.2,0.2-0.3,0.5-0.3h18.7c0.3,0,0.5,0.1,0.5,0.3v0.4C22.1,17.9,21.9,18,21.6,18
	z"/>
<rect x="4.2" y="7" class="st1" width="15.8" height="9.6"/>
<rect x="4.9" y="7.7" width="14.4" height="8"/>
<polygon points="2.7,17 4.2,16.6 20,16.6 21.8,17 "/>
<g>
	<text transform="matrix(1.1971 0 0 1 5.0807 8.3211)"><tspan x="0" y="0" class="st0 st2 st3">101010101010101010101010101010100010110101010101010101010</tspan><tspan x="0" y="0.5" class="st0 st2 st3">101010101010101010101010101010101010110101010101010101010</tspan><tspan x="0" y="1" class="st0 st2 st3">100101011010100101010101010101010100110101010101010101010</tspan><tspan x="0" y="1.4" class="st0 st2 st3">101010101010101010101010101010101011010101001101001010101</tspan><tspan x="0" y="1.9" class="st0 st2 st3">101101010101010101101010010101010101010101010110101001010</tspan><tspan x="0" y="2.4" class="st0 st2 st3">111011010100101010101010101010101010110101010101010101010</tspan><tspan x="0" y="2.9" class="st0 st2 st3">101010101010101010101010101010100010110101010101010101010</tspan><tspan x="0" y="3.4" class="st0 st2 st3">101010101010101010101010101010101010110101010101010101010</tspan><tspan x="0" y="3.8" class="st0 st2 st3">100101011010100101010101010101010100110101010101010101010</tspan><tspan x="0" y="4.3" class="st0 st2 st3">101010101010101010101010101010101011010101001101001010101</tspan><tspan x="0" y="4.8" class="st0 st2 st3">101101010101010101101010010101010101010101010110101001010</tspan><tspan x="0" y="5.3" class="st0 st2 st3">111011010100101010101010101010101010110101010101010101010</tspan><tspan x="0" y="5.8" class="st0 st2 st3">101010101010101010101010101010100010110101010101010101010</tspan><tspan x="0" y="6.2" class="st0 st2 st3">101010101010101010101010101010101010110101010101010101010</tspan><tspan x="0" y="6.7" class="st0 st2 st3">100101011010100101010101010101010100110101010101010101010</tspan><tspan x="0" y="7.2" class="st0 st2 st3">101010101010101010101010101010101011010101001101001010101</tspan></text>
</g>
<g>
	<polyline class="st4" points="8.9,9.3 6.1,11.9 9,14.6 	"/>
	<polyline class="st4" points="15.2,9.3 18,11.9 15.1,14.6 	"/>
	<line class="st5" x1="14.1" y1="8.6" x2="9.8" y2="15.1"/>
</g>
</svg>
